<svg width="87" height="99" viewBox="0 0 87 99" fill="none" xmlns="http://www.w3.org/2000/svg">
<path fill-rule="evenodd" clip-rule="evenodd" d="M29.8577 76.2953L18.9999 70L24.1421 78.7047L34.9999 85L29.8577 76.2953Z" fill="#D8D8D8"/>
<path fill-rule="evenodd" clip-rule="evenodd" d="M6.93339 21.8287L43.1579 0.820237C44.8114 -0.138944 46.3092 -0.228324 47.391 0.40313L57.9999 6.59601C56.9181 5.96456 55.4204 6.05394 53.766 7.01312L17.5415 28.0216C14.2518 29.93 11.5981 34.5538 11.6088 38.3516L11.7266 80.1641C11.7316 82.0485 12.394 83.376 13.4633 84L2.85443 77.8071C1.78588 77.1831 1.12349 75.8557 1.11772 73.9712L0.99991 32.1587C0.9892 28.3609 3.64287 23.7371 6.93339 21.8287Z" fill="#D8D8D8"/>
<path fill-rule="evenodd" clip-rule="evenodd" d="M16.9022 27.9407C13.6293 29.859 10.9893 34.5065 10.9999 38.3238L11.1171 80.351C11.1278 84.1617 13.7851 85.7056 17.0587 83.7873L28.6829 76.9762L33.6811 85.5833C33.9786 86.0957 34.5458 86.1065 35.113 85.7738C35.6794 85.4419 36.2449 84.7673 36.5383 83.9088L41.4669 69.4855L53.0968 62.671C56.3704 60.7528 59.0105 56.1053 58.9998 52.2946L58.8826 10.2666C58.872 6.45007 56.2139 4.90617 52.941 6.8244L16.9022 27.9407Z" fill="#EDEDED"/>
<path fill-rule="evenodd" clip-rule="evenodd" d="M38.5982 39.2302C38.003 38.8703 37.1794 38.9198 36.2687 39.4679C34.4575 40.5565 32.9943 43.196 32.9999 45.3568C33.0031 46.4331 33.3677 47.1908 33.9566 47.5474L36.3583 49C35.7693 48.6443 35.4039 47.8866 35.4016 46.8103C35.3952 44.6495 36.8592 42.01 38.6703 40.9213C39.5811 40.3733 40.4046 40.323 40.9999 40.6828L38.5982 39.2302Z" fill="#D0E8EE"/>
<path fill-rule="evenodd" clip-rule="evenodd" d="M38.4914 40.4802C40.426 39.3631 41.9939 40.2627 41.9999 42.4782C42.0058 44.7006 40.4488 47.4036 38.5143 48.5198C36.5797 49.6361 35.0058 48.7399 34.9999 46.5184C34.9931 44.3028 36.5569 41.5964 38.4914 40.4802Z" fill="#FFFFFE"/>
<path fill-rule="evenodd" clip-rule="evenodd" d="M51.5982 32.2299C51.0037 31.8701 50.1794 31.9204 49.2687 32.4676C47.4583 33.5562 45.9943 36.1964 45.9999 38.3562C46.0031 39.4324 46.3685 40.1901 46.9566 40.5466L49.3583 42C48.7693 41.6435 48.4047 40.8858 48.4016 39.8096C48.396 37.6489 49.8592 35.0096 51.6703 33.921C52.5811 33.373 53.4054 33.3226 53.9999 33.6825L51.5982 32.2299Z" fill="#D0E8EE"/>
<path fill-rule="evenodd" clip-rule="evenodd" d="M51.4914 33.48C53.426 32.3629 54.9939 33.2634 54.9999 35.478C55.0066 37.7003 53.4488 40.4033 51.5143 41.5195C49.5797 42.6365 48.0067 41.7395 47.9999 39.5181C47.994 37.3026 49.5569 34.5962 51.4914 33.48Z" fill="#FFFFFE"/>
<path fill-rule="evenodd" clip-rule="evenodd" d="M54.8577 89.2953L43.9999 83L49.1421 91.7047L59.9999 98L54.8577 89.2953Z" fill="#D8D8D8"/>
<path fill-rule="evenodd" clip-rule="evenodd" d="M32.9334 34.8287L69.1579 13.8202C70.8114 12.8611 72.3092 12.7717 73.391 13.4031L83.9999 19.596C82.9181 18.9646 81.4204 19.0539 79.766 20.0131L43.5415 41.0216C40.2518 42.93 37.5981 47.5538 37.6088 51.3516L37.7266 93.1641C37.7316 95.0485 38.394 96.376 39.4633 97L28.8544 90.8071C27.7859 90.1831 27.1235 88.8557 27.1177 86.9712L26.9999 45.1587C26.9892 41.3609 29.6429 36.7371 32.9334 34.8287Z" fill="#D8D8D8"/>
<path fill-rule="evenodd" clip-rule="evenodd" d="M42.9022 40.9407C39.6293 42.859 36.9893 47.5065 36.9999 51.3238L37.1171 93.351C37.1278 97.1617 39.7851 98.7056 43.0587 96.7873L54.6829 89.9762L59.6811 98.5833C59.9786 99.0957 60.5458 99.1065 61.113 98.7738C61.6794 98.4419 62.2449 97.7673 62.5383 96.9088L67.4669 82.4855L79.0968 75.671C82.3704 73.7528 85.0105 69.1053 84.9998 65.2946L84.8826 23.2666C84.872 19.4501 82.2139 17.9062 78.941 19.8244L42.9022 40.9407Z" fill="#F1F1F1"/>
<path fill-rule="evenodd" clip-rule="evenodd" d="M50.5985 60.2307C50.0024 59.8699 49.1779 59.9203 48.2693 60.4668C46.4578 61.5555 44.9936 64.1954 44.9999 66.3564C45.0023 67.4328 45.3678 68.1906 45.9568 68.5472L48.3581 70C47.7699 69.6442 47.4044 68.8865 47.4012 67.8101C47.3957 65.649 48.86 63.0092 50.6707 61.9196C51.58 61.3739 52.4045 61.3236 52.9999 61.6843L50.5985 60.2307Z" fill="#018ABE"/>
<path fill-rule="evenodd" clip-rule="evenodd" d="M50.491 61.4782C52.4202 60.3652 53.9931 61.2615 53.9999 63.4774C54.0058 65.7 52.4422 68.4068 50.5138 69.5198C48.5804 70.6362 47.0067 69.7398 46.9999 67.5181C46.994 65.3022 48.5575 62.5954 50.491 61.4782Z" fill="#00ACED"/>
<path fill-rule="evenodd" clip-rule="evenodd" d="M64.5982 52.2302C64.003 51.8703 63.1794 51.9198 62.2687 52.4679C60.4575 53.5565 58.9943 56.196 58.9999 58.3568C59.0031 59.4331 59.3677 60.1908 59.9566 60.5474L62.3583 62C61.7693 61.6443 61.4039 60.8866 61.4016 59.8103C61.3952 57.6495 62.8592 55.01 64.6703 53.9213C65.5811 53.3733 66.4046 53.323 66.9999 53.6828L64.5982 52.2302Z" fill="#018ABE"/>
<path fill-rule="evenodd" clip-rule="evenodd" d="M64.4914 53.4802C66.426 52.3631 67.9939 53.2627 67.9999 55.4782C68.0058 57.7006 66.4488 60.4036 64.5143 61.5198C62.5797 62.6361 61.0058 61.7399 60.9999 59.5184C60.9931 57.3028 62.5569 54.5964 64.4914 53.4802Z" fill="#00ACED"/>
<path fill-rule="evenodd" clip-rule="evenodd" d="M77.5982 45.2299C77.0037 44.8701 76.1794 44.9204 75.2687 45.4676C73.4583 46.5562 71.9943 49.1964 71.9999 51.3562C72.0031 52.4324 72.3685 53.1901 72.9566 53.5466L75.3583 55C74.7693 54.6435 74.4047 53.8858 74.4016 52.8096C74.396 50.6489 75.8592 48.0096 77.6703 46.921C78.5811 46.373 79.4054 46.3226 79.9999 46.6825L77.5982 45.2299Z" fill="#018ABE"/>
<path fill-rule="evenodd" clip-rule="evenodd" d="M77.4914 46.48C79.426 45.3629 80.9939 46.2634 80.9999 48.478C81.0066 50.7003 79.4488 53.4033 77.5143 54.5195C75.5797 55.6365 74.0067 54.7395 73.9999 52.5181C73.994 50.3026 75.5569 47.5962 77.4914 46.48Z" fill="#00ACED"/>
</svg>
