<svg width="64" height="77" viewBox="0 0 64 77" fill="none" xmlns="http://www.w3.org/2000/svg">
<path fill-rule="evenodd" clip-rule="evenodd" d="M27.6416 9.71699C42.5895 18.5981 54.4537 39.7571 54.1407 56.9758C53.827 74.1937 41.4531 80.953 26.5045 72.0727C11.5558 63.1923 -0.308424 42.0325 0.00611231 24.8146C0.319868 7.59597 12.6929 0.836619 27.6416 9.71699Z" fill="#F6F6F6"/>
<path fill-rule="evenodd" clip-rule="evenodd" d="M27.5238 16.1421C39.3919 23.1931 48.8116 39.9914 48.5618 53.6613C48.3129 67.3313 38.4896 72.6978 26.6215 65.6476C14.7542 58.5967 5.33452 41.7984 5.5835 28.1284C5.83247 14.4585 15.6565 9.09199 27.5238 16.1421Z" fill="#FFFFFE"/>
<path fill-rule="evenodd" clip-rule="evenodd" d="M7.89297 30.4945C8.14194 16.8246 17.9659 11.4581 29.8333 18.5082C31.9968 19.7933 34.0776 21.4055 36.0342 23.2606C33.4383 20.3943 30.5622 17.9475 27.5238 16.1421C15.6565 9.09199 5.83248 14.4585 5.5835 28.1284C5.37979 39.3066 11.6432 52.5733 20.4214 60.8953C12.8764 52.564 7.70799 40.6646 7.89297 30.4945Z" fill="#D6D5D0"/>
<path fill-rule="evenodd" clip-rule="evenodd" d="M63.2381 50.6818C63.2374 50.6042 63.2327 50.5259 63.2311 50.4484C63.2272 50.284 63.221 50.1188 63.2155 49.9544C63.2093 49.7589 63.2061 49.5651 63.1968 49.3689C63.1898 49.2192 63.1765 49.0672 63.1679 48.9167C63.1577 48.743 63.1468 48.5693 63.1336 48.3948C63.1257 48.2793 63.1211 48.1637 63.1117 48.0474C63.0914 47.7969 63.0641 47.5441 63.0383 47.292C63.0251 47.1486 63.0126 47.0059 62.9977 46.8616L62.9829 46.7166C62.933 46.2629 62.8736 45.8077 62.8089 45.3509L62.8042 45.3191L62.7738 45.1284C62.7168 44.7453 62.6582 44.3606 62.5911 43.976L62.5521 43.7704C62.5201 43.5874 62.4842 43.4052 62.4491 43.2229C62.4077 43.0004 62.3695 42.7786 62.3234 42.556C62.2984 42.4319 62.2688 42.3071 62.243 42.183C62.2009 41.9852 62.1572 41.7875 62.1127 41.5889C62.0783 41.4354 62.0487 41.2834 62.0128 41.1298C61.9698 40.946 61.9207 40.7622 61.8754 40.5784C61.827 40.3784 61.7778 40.1783 61.7271 39.9782C61.7014 39.8797 61.6795 39.782 61.6537 39.6843C61.5851 39.4229 61.5086 39.1608 61.4368 38.8987C61.3884 38.7289 61.3431 38.5582 61.2947 38.3876L61.2549 38.2449C61.1176 37.7742 60.9739 37.3042 60.8233 36.8351L60.8178 36.8164L60.7773 36.697C60.643 36.279 60.5041 35.861 60.3597 35.4446L60.2887 35.2476C60.234 35.0909 60.1755 34.9343 60.1185 34.7769C60.0389 34.5543 59.9609 34.3309 59.8774 34.1084C59.8243 33.9664 59.7673 33.8245 59.7135 33.6834C59.6471 33.5089 59.58 33.3352 59.5113 33.1607C59.4614 33.0351 59.4153 32.9079 59.3646 32.7822C59.2631 32.531 59.1577 32.2797 59.0532 32.0292C58.997 31.8935 58.9423 31.757 58.8846 31.6221L58.8268 31.4809C58.6387 31.0397 58.4452 30.6 58.2469 30.1618L58.2204 30.1067C58.1618 29.978 58.1002 29.8508 58.0409 29.7229C57.8863 29.3871 57.7318 29.052 57.5702 28.7186L57.4922 28.5611C57.3579 28.2858 57.2182 28.0136 57.0809 27.7399C56.97 27.5196 56.8631 27.2963 56.7499 27.0776L56.6852 26.9582C56.3152 26.2493 55.932 25.5467 55.5371 24.8511L55.4395 24.6727C55.3388 24.4951 55.2311 24.3222 55.1289 24.1454C54.9626 23.8615 54.7972 23.5777 54.6262 23.2954C54.474 23.0434 54.3172 22.7929 54.1611 22.5424C53.9886 22.264 53.8153 21.9864 53.6374 21.7111C53.5788 21.6203 53.5234 21.5265 53.4649 21.4358C53.4079 21.3489 53.3462 21.2667 53.2893 21.1798C52.7968 20.4299 52.2949 19.6878 51.7736 18.9619L51.7728 18.9611L51.7533 18.9363C51.3872 18.426 51.0134 17.9235 50.6333 17.4271L50.5833 17.3597C50.3023 16.9936 50.0151 16.633 49.7271 16.2747L49.5609 16.0638L49.5499 16.0506C49.2097 15.6303 48.8639 15.2162 48.5142 14.8075L48.4619 14.7478C48.355 14.6237 48.245 14.5035 48.1373 14.3802C47.9156 14.1266 47.6947 13.8706 47.4692 13.6217L47.3404 13.4837C47.189 13.3162 47.0336 13.1533 46.8799 12.9889C46.7097 12.8066 46.5419 12.6205 46.3702 12.4414L46.1775 12.246C46.0097 12.073 45.8403 11.9032 45.6709 11.7333C45.5257 11.5868 45.3821 11.4363 45.2362 11.2921C45.1527 11.2106 45.0676 11.1339 44.9841 11.0532C44.8022 10.8764 44.6196 10.7027 44.4346 10.5298C44.3074 10.4095 44.1817 10.2839 44.053 10.1653C43.9523 10.073 43.8493 9.98534 43.7478 9.89306C43.5644 9.72555 43.3794 9.56036 43.1936 9.39673C43.0805 9.29747 42.9689 9.19277 42.8557 9.09506C42.7332 8.98881 42.6083 8.88955 42.485 8.78485C42.3039 8.6313 42.1213 8.47775 41.9386 8.3273C41.8434 8.24898 41.7505 8.16755 41.6553 8.09077C41.5016 7.96514 41.3431 7.84726 41.1878 7.72473C41.0184 7.59134 40.8498 7.4564 40.6789 7.32689L40.4705 7.16404C40.2614 7.00583 40.0491 6.85616 39.8383 6.70261C39.6947 6.59869 39.5519 6.49089 39.4083 6.38853L39.2959 6.3071C38.9158 6.03955 38.5334 5.77975 38.1486 5.52849L38.1384 5.52151L38.0557 5.46955C37.706 5.24232 37.3564 5.02053 37.0036 4.80726C36.9154 4.75375 36.8256 4.70024 36.7375 4.64751C36.4495 4.47689 36.163 4.31171 35.8774 4.15195C35.7673 4.09146 35.6596 4.03718 35.5511 3.97824C35.4036 3.89836 35.2569 3.81926 35.1094 3.74249C34.9962 3.68277 34.8807 3.61685 34.7667 3.55946C34.5841 3.46563 34.403 3.38187 34.2204 3.29346C34.09 3.22987 33.9589 3.16395 33.8294 3.10269L33.6686 3.02514C33.3057 2.85608 32.9435 2.6971 32.5845 2.5482L32.579 2.54587C32.2122 2.39387 31.8485 2.25118 31.4871 2.11934L31.3474 2.07126C31.2155 2.02318 31.0852 1.9813 30.954 1.93632C30.7698 1.87351 30.5825 1.80526 30.3999 1.7471C30.3078 1.71763 30.218 1.69514 30.1259 1.66722C29.9652 1.61836 29.8052 1.57338 29.6452 1.52763C29.5226 1.49351 29.3985 1.4524 29.276 1.42061C29.1464 1.38649 29.0208 1.36167 28.892 1.32987C28.732 1.29032 28.5728 1.25155 28.4136 1.21665C28.33 1.19804 28.2442 1.174 28.1607 1.15616C28.01 1.12436 27.8641 1.1042 27.715 1.07628C27.53 1.04216 27.3451 1.00649 27.1616 0.977016L26.9673 0.942118C26.8159 0.919628 26.6684 0.908771 26.5177 0.890159C26.3195 0.864567 26.122 0.838975 25.9269 0.820363L25.7552 0.800199C25.6225 0.789342 25.4945 0.790118 25.3626 0.782363C25.1293 0.767628 24.8967 0.753669 24.6672 0.749016L24.4729 0.738934C24.3722 0.738159 24.2762 0.74824 24.1763 0.749016C23.8859 0.750567 23.5995 0.759097 23.3162 0.776159C23.2296 0.781587 23.1406 0.77771 23.0563 0.783914C22.9361 0.79322 22.8198 0.80873 22.7019 0.820363C22.613 0.829669 22.524 0.837424 22.4358 0.847506C22.1135 0.885506 21.7935 0.92971 21.4781 0.987097L21.4493 0.993301C21.3634 1.00959 21.2799 1.03208 21.194 1.04991C20.9334 1.10342 20.6735 1.15926 20.4198 1.22673C20.2949 1.2593 20.1732 1.29963 20.0498 1.33608C19.8875 1.38338 19.722 1.42681 19.562 1.48032L19.4434 1.52685C19.1952 1.61216 18.9548 1.7091 18.7144 1.80836C18.5989 1.85644 18.4795 1.89832 18.3656 1.94951C18.0143 2.10693 17.6701 2.276 17.3361 2.46289L8.2395 7.53163C8.57433 7.34473 8.91775 7.17644 9.26897 7.01902C9.3837 6.96783 9.50311 6.92518 9.6194 6.8771C9.85901 6.77783 10.0994 6.68089 10.3468 6.59559C10.5466 6.52657 10.7503 6.4653 10.9548 6.40481C11.0774 6.36914 11.1983 6.32881 11.3232 6.29624C11.5776 6.22877 11.8376 6.17216 12.099 6.11865C12.1841 6.10159 12.2676 6.0791 12.3535 6.06281C12.6774 6.00232 13.0067 5.95579 13.34 5.91702C13.4282 5.90616 13.5172 5.8984 13.6054 5.88987C13.8075 5.86971 14.0136 5.8573 14.2188 5.84489C14.5037 5.82861 14.7901 5.82008 15.0797 5.81775C15.2436 5.81698 15.4059 5.81387 15.5714 5.81775C15.8009 5.82318 16.0335 5.83714 16.2668 5.8511C16.4541 5.86273 16.6415 5.87281 16.8311 5.88987C17.0262 5.90849 17.2237 5.93485 17.4212 5.95889C17.635 5.98604 17.8496 6.0124 18.0658 6.04653C18.2493 6.07522 18.4342 6.11089 18.6184 6.14579C18.8502 6.18922 19.0828 6.23342 19.3177 6.28538C19.4762 6.32106 19.6362 6.35983 19.7962 6.39861C20.0459 6.45987 20.2973 6.52657 20.5501 6.59714C20.7094 6.64212 20.8686 6.68787 21.0294 6.73673C21.3041 6.82049 21.5804 6.91044 21.859 7.00583C21.9894 7.05081 22.1197 7.09269 22.2508 7.14C22.6582 7.28734 23.0688 7.44322 23.4832 7.61538L23.4871 7.61693L23.4879 7.61771C23.9 7.78832 24.316 7.976 24.7336 8.1722C24.8631 8.23346 24.9942 8.29938 25.1254 8.36298C25.4204 8.50644 25.7162 8.65534 26.0136 8.81122C26.1603 8.88877 26.3078 8.9671 26.4553 9.04775C26.8487 9.26179 27.2436 9.48049 27.6416 9.71702C28.0834 9.97991 28.5228 10.2552 28.9591 10.5391L29.0418 10.591C29.4688 10.8694 29.891 11.1595 30.3117 11.4573C30.4561 11.5604 30.6005 11.6682 30.7441 11.7737C31.0251 11.9776 31.3045 12.1831 31.5823 12.3956C31.7525 12.5259 31.9226 12.6609 32.0928 12.7942C32.3433 12.9928 32.5931 13.1921 32.8428 13.3968C33.0255 13.5473 33.2081 13.7 33.3892 13.8544C33.6264 14.0552 33.8621 14.2592 34.0963 14.4662C34.2836 14.6299 34.4686 14.7951 34.6528 14.9633C34.883 15.172 35.1109 15.3837 35.338 15.5977C35.5222 15.7714 35.7064 15.9451 35.8883 16.1227C36.1193 16.3461 36.348 16.5741 36.5759 16.8036C36.7445 16.9735 36.9138 17.1425 37.0809 17.3147C37.3174 17.559 37.5515 17.8087 37.7849 18.0592C37.9378 18.2236 38.0924 18.3857 38.2446 18.5532C38.5131 18.8471 38.7776 19.148 39.0415 19.4504C39.1492 19.573 39.2592 19.6932 39.3646 19.8173C39.7361 20.2492 40.1037 20.6874 40.4635 21.1325C40.5236 21.2054 40.5814 21.2822 40.6399 21.3559C40.9427 21.732 41.2432 22.1112 41.5367 22.4967C41.9176 22.993 42.2906 23.4955 42.6575 24.005L42.677 24.0322C43.1976 24.7573 43.7002 25.4994 44.1935 26.2486C44.309 26.4254 44.4276 26.6022 44.5416 26.7806C44.7195 27.0559 44.8928 27.3343 45.066 27.6119C45.2214 27.8624 45.3775 28.1129 45.5304 28.3649C45.6998 28.6464 45.866 28.9303 46.0315 29.2141C46.1689 29.4491 46.307 29.6841 46.4413 29.9198C46.8362 30.6162 47.2194 31.3189 47.5886 32.0284C47.7236 32.2867 47.8532 32.5473 47.9843 32.8078C48.1224 33.0816 48.2621 33.3546 48.3964 33.6299C48.5845 34.0184 48.7671 34.4077 48.9482 34.7986C49.0059 34.9242 49.0668 35.0491 49.1238 35.1747C49.3533 35.6788 49.5741 36.1852 49.7896 36.6931C49.8465 36.8273 49.8996 36.9615 49.9566 37.0956C50.1127 37.4733 50.2664 37.8518 50.4147 38.231C50.4826 38.4039 50.5497 38.5776 50.6161 38.7513C50.7558 39.1158 50.8916 39.4819 51.0235 39.8479C51.0797 40.0046 51.1375 40.1604 51.1929 40.3171C51.3607 40.7964 51.523 41.2756 51.6783 41.7564L51.722 41.8875C51.8891 42.411 52.0475 42.9344 52.1989 43.4587C52.2473 43.627 52.2918 43.7953 52.3386 43.9635C52.4393 44.3249 52.5377 44.6871 52.6305 45.0485C52.6828 45.2478 52.7304 45.4479 52.7796 45.6472C52.8616 45.9838 52.9412 46.3203 53.0161 46.6561C53.0606 46.8554 53.1051 47.0555 53.1464 47.254C53.2198 47.6007 53.2877 47.9466 53.3533 48.2932C53.3884 48.4747 53.4243 48.6562 53.4563 48.8384C53.5359 49.2905 53.61 49.7411 53.6764 50.1909L53.7076 50.3894C53.7817 50.9051 53.845 51.4178 53.9004 51.9296C53.9168 52.0754 53.9285 52.2204 53.9433 52.3654C53.9792 52.7322 54.0112 53.0983 54.0377 53.4628C54.051 53.638 54.0612 53.8125 54.0713 53.987C54.0916 54.3337 54.108 54.6788 54.1197 55.0223C54.1244 55.1875 54.1314 55.3542 54.1345 55.5187C54.1455 56.0064 54.1494 56.4927 54.1408 56.9758C54.1306 57.4815 54.1096 57.977 54.0799 58.4648C54.0713 58.6044 54.058 58.7393 54.0479 58.8774C54.0237 59.2109 53.9956 59.5428 53.9613 59.8677C53.9417 60.0569 53.9176 60.2423 53.8941 60.4292C53.8606 60.7053 53.8239 60.979 53.7825 61.2481C53.7521 61.4474 53.7185 61.6429 53.6842 61.8383C53.6405 62.0857 53.5944 62.3315 53.5445 62.5735C53.5008 62.7922 53.4532 63.0078 53.404 63.221C53.3533 63.4389 53.3002 63.6538 53.244 63.867C53.1792 64.1175 53.1105 64.3633 53.0379 64.6069C52.9825 64.7969 52.924 64.9869 52.8639 65.1722C52.7695 65.4638 52.6672 65.7484 52.5626 66.0291C52.5064 66.1811 52.4526 66.3355 52.3933 66.4836C52.2036 66.9559 52.0038 67.4134 51.7868 67.8524C51.6182 68.1928 51.4442 68.5255 51.2592 68.8458L51.2553 68.8528C51.068 69.1769 50.8721 69.4895 50.6699 69.7927L50.5435 69.9726C50.3874 70.1975 50.2282 70.4178 50.0635 70.631C49.9979 70.7163 49.9308 70.8009 49.8629 70.8846C49.7068 71.0785 49.5468 71.2662 49.3837 71.4492L49.1979 71.6586C48.9732 71.8998 48.7437 72.134 48.5056 72.3565L48.4026 72.4473C48.1966 72.6365 47.9843 72.8195 47.7673 72.994C47.6885 73.0576 47.6089 73.1189 47.5285 73.1809C47.3435 73.3236 47.1554 73.4616 46.9634 73.5935C46.8838 73.6485 46.805 73.7044 46.7246 73.7579C46.4569 73.9331 46.186 74.1022 45.9066 74.2581L55.0024 69.1886C55.2818 69.0335 55.5527 68.8644 55.8204 68.6884C55.9016 68.6356 55.9796 68.579 56.06 68.524C56.2512 68.3921 56.4393 68.2549 56.6251 68.1122C56.7047 68.0501 56.7851 67.9889 56.8639 67.9245C57.0809 67.75 57.2924 67.5678 57.4992 67.3778L57.6015 67.287C57.8395 67.0645 58.069 66.831 58.2938 66.5891L58.4795 66.3797C58.6426 66.1966 58.8034 66.009 58.9595 65.8151C59.0266 65.7313 59.0945 65.6468 59.1609 65.5607C59.3248 65.3482 59.4832 65.1295 59.6385 64.9046L59.7665 64.7224L59.804 64.6689C60.1856 64.0935 60.5392 63.48 60.8623 62.8294L60.8834 62.7829C61.0996 62.3439 61.3002 61.8864 61.4883 61.4149L61.5406 61.2962C61.5843 61.1876 61.6186 61.069 61.66 60.9581C61.7638 60.6781 61.8653 60.3951 61.9597 60.1035C61.9855 60.0259 62.0159 59.9538 62.0401 59.8755C62.0744 59.7654 62.1017 59.6482 62.1345 59.5373C62.2063 59.2946 62.2758 59.048 62.3406 58.7983C62.3671 58.6951 62.3991 58.599 62.4249 58.4951C62.4522 58.3826 62.474 58.2647 62.4998 58.1507C62.549 57.9382 62.5966 57.7226 62.6411 57.5047C62.6637 57.3923 62.6918 57.2853 62.7129 57.1713C62.7386 57.0402 62.7574 56.9022 62.78 56.7688C62.8143 56.5733 62.8479 56.3779 62.8783 56.1794C62.8939 56.0778 62.9135 55.9809 62.9283 55.8777C62.9525 55.7086 62.9689 55.5311 62.9907 55.3589C63.0134 55.1728 63.0376 54.9882 63.0578 54.7998C63.0649 54.7238 63.0766 54.6501 63.0844 54.5741C63.1094 54.322 63.1257 54.0615 63.1445 53.804C63.1546 53.6675 63.1671 53.5341 63.1757 53.3961L63.1843 53.2953C63.2085 52.8649 63.2264 52.4282 63.235 51.9839L63.2366 51.9056C63.2436 51.5 63.2444 51.092 63.2381 50.6818Z" fill="#DCDCDC"/>
<path fill-rule="evenodd" clip-rule="evenodd" d="M28.3971 19.3838C29.2947 19.9173 30.0057 21.1861 29.9878 22.2206C29.9683 23.2512 29.2268 23.6568 28.3285 23.1233C27.4301 22.589 26.7183 21.3202 26.7378 20.2903C26.7566 19.255 27.498 18.8502 28.3971 19.3838Z" fill="#363B45"/>
<path fill-rule="evenodd" clip-rule="evenodd" d="M27.6939 57.9251C28.5923 58.4586 29.3041 59.7266 29.2846 60.7619C29.2658 61.7925 28.5244 62.1973 27.6252 61.6638C26.7277 61.1302 26.0159 59.8615 26.0346 58.8308C26.0541 57.7963 26.7956 57.3915 27.6939 57.9251Z" fill="#363B45"/>
<path fill-rule="evenodd" clip-rule="evenodd" d="M11.3169 28.7139C12.2114 29.2459 12.9224 30.5185 12.9045 31.5492C12.8857 32.5837 12.1435 32.9885 11.249 32.4573C10.3499 31.9237 9.6389 30.655 9.65841 29.6205C9.67636 28.5898 10.4186 28.1803 11.3169 28.7139Z" fill="#363B45"/>
<path fill-rule="evenodd" clip-rule="evenodd" d="M44.7734 48.5903C45.6717 49.1238 46.3827 50.3964 46.364 51.4271C46.3453 52.4616 45.603 52.8672 44.7047 52.3336C43.811 51.8016 43.0984 50.5337 43.1179 49.4984C43.1367 48.4677 43.8781 48.0583 44.7734 48.5903Z" fill="#363B45"/>
<path fill-rule="evenodd" clip-rule="evenodd" d="M28.3051 26.5456C28.8615 26.876 29.3072 27.6771 29.2955 28.3114L29.0504 41.5145C29.045 41.8224 28.9427 42.0659 28.7398 42.1768L22.6317 45.6123C22.4311 45.7216 22.1689 45.6805 21.909 45.5254C21.6491 45.3711 21.3915 45.1036 21.1995 44.7616C20.8163 44.0776 20.8288 43.3377 21.2299 43.1128L27.036 39.8487L27.2725 27.1094C27.2842 26.475 27.7478 26.2145 28.3051 26.5456Z" fill="#00ACED"/>
<path fill-rule="evenodd" clip-rule="evenodd" d="M28.1146 37.8339C29.411 38.604 30.4373 40.4342 30.41 41.927C30.3827 43.4137 29.3127 43.9984 28.0163 43.2284C26.7207 42.4583 25.6951 40.6288 25.7216 39.1414C25.749 37.6493 26.819 37.0646 28.1146 37.8339Z" fill="#363B45"/>
<path fill-rule="evenodd" clip-rule="evenodd" d="M28.0795 39.7851C28.4377 39.9983 28.7226 40.5047 28.7148 40.9173C28.707 41.3291 28.4112 41.4904 28.0522 41.2779C27.6939 41.0647 27.4098 40.5583 27.4176 40.1472C27.4247 39.7339 27.7205 39.5726 28.0795 39.7851Z" fill="#FFFFFE"/>
</svg>
