<svg width="905" height="555" viewBox="0 0 905 555" fill="none" xmlns="http://www.w3.org/2000/svg">
<path opacity="0.386858" fill-rule="evenodd" clip-rule="evenodd" d="M481.347 41.8469C471.833 36.3405 460.158 36.1034 450.427 41.2191L15.6969 269.776C8.80303 273.401 8.51571 283.166 15.1846 287.19L436.923 541.632C449.571 549.262 465.395 549.301 478.08 541.733L890.386 295.748C896.938 291.839 896.875 282.327 890.271 278.505L481.347 41.8469Z" stroke="#979797" stroke-dasharray="5"/>
<path d="M457.862 461L158.387 287.917C143.285 279.099 143.285 257.264 158.387 248.447L443.218 89.7239C454.124 83.4254 467.128 83.4254 478.035 89.7239L755.734 250.966C770.836 259.784 770.836 281.619 755.734 290.437L457.862 461Z" fill="white"/>
<path d="M755.893 290.288L476.367 451.451C465.455 457.754 452.444 457.754 441.531 451.451L158.228 288.39C151.933 284.608 148.155 278.724 147.316 272C146.057 280.825 149.415 308.168 158.228 313.212C167.042 318.255 441.531 476.272 441.531 476.272C452.444 482.576 465.455 482.576 476.367 476.272L755.893 315.733C764.707 310.69 768.064 283.347 766.805 274.522C765.966 280.825 762.608 286.505 755.893 290.288Z" fill="#FAFAFA"/>
<mask id="mask0" mask-type="alpha" maskUnits="userSpaceOnUse" x="147" y="272" width="621" height="209">
<path d="M755.893 290.288L476.367 451.451C465.455 457.754 452.444 457.754 441.531 451.451L158.228 288.39C151.933 284.608 148.155 278.724 147.316 272C146.057 280.825 149.415 308.168 158.228 313.212C167.042 318.255 441.531 476.272 441.531 476.272C452.444 482.576 465.455 482.576 476.367 476.272L755.893 315.733C764.707 310.69 768.064 283.347 766.805 274.522C765.966 280.825 762.608 286.505 755.893 290.288Z" fill="white"/>
</mask>
<g mask="url(#mask0)">
<rect x="129.061" y="254" width="330" height="245" fill="#ECE9E9"/>
<path d="M446.619 380L237.952 258.934C227.43 252.766 227.43 237.493 237.952 231.326L436.415 120.304C444.015 115.899 453.075 115.899 460.675 120.304L654.169 233.088C664.691 239.256 664.691 254.528 654.169 260.696L446.619 380Z" fill="white"/>
</g>
<path d="M655.261 262.688L460.044 374.499C452.423 378.873 443.336 378.873 435.715 374.499L237.86 261.371C233.463 258.747 230.825 254.665 230.239 250C229.36 256.123 231.705 275.093 237.86 278.592C244.016 282.091 435.715 391.72 435.715 391.72C443.336 396.093 452.423 396.093 460.044 391.72L655.261 280.341C661.417 276.842 663.762 257.872 662.882 251.749C662.296 256.123 659.951 260.063 655.261 262.688Z" fill="#FAFAFA"/>
<mask id="mask1" mask-type="alpha" maskUnits="userSpaceOnUse" x="230" y="250" width="434" height="145">
<path d="M655.261 262.688L460.044 374.499C452.423 378.873 443.336 378.873 435.715 374.499L237.86 261.371C233.463 258.747 230.825 254.665 230.239 250C229.36 256.123 231.705 275.093 237.86 278.592C244.016 282.091 435.715 391.72 435.715 391.72C443.336 396.093 452.423 396.093 460.044 391.72L655.261 280.341C661.417 276.842 663.762 257.872 662.882 251.749C662.296 256.123 659.951 260.063 655.261 262.688Z" fill="white"/>
</mask>
<g mask="url(#mask1)">
<rect x="217.061" y="238" width="230" height="170" fill="#ECE9E9"/>
</g>
<path d="M487.303 252.622C487.303 252.746 487.241 252.808 487.241 252.932C487.179 253.305 487.054 253.739 486.93 254.112C486.806 254.546 486.682 254.981 486.557 255.416C486.309 256.036 486.06 256.657 485.749 257.278C485.687 257.402 485.625 257.464 485.563 257.588C485.19 258.271 484.817 258.892 484.382 259.575C484.32 259.699 484.258 259.761 484.196 259.886C483.761 260.506 483.326 261.065 482.829 261.624C482.704 261.748 482.642 261.872 482.518 261.934C481.959 262.555 481.337 263.114 480.716 263.673C480.281 264.045 479.846 264.418 479.411 264.79C479.038 265.101 478.665 265.411 478.23 265.722C477.733 266.094 477.236 266.404 476.739 266.715C476.18 267.087 475.683 267.46 475.061 267.77C474.129 268.329 473.135 268.826 472.203 269.26C471.954 269.385 471.705 269.509 471.395 269.633C470.525 270.067 469.593 270.44 468.661 270.812C468.536 270.875 468.412 270.937 468.288 270.999C467.293 271.371 466.299 271.744 465.243 272.054C464.497 272.302 463.751 272.489 463.006 272.675C462.446 272.799 461.887 272.985 461.328 273.11C460.582 273.296 459.774 273.482 459.029 273.606C458.407 273.73 457.848 273.855 457.227 273.979C456.978 274.041 456.792 274.041 456.543 274.103C455.549 274.289 454.554 274.413 453.56 274.538C453.25 274.6 453.001 274.6 452.69 274.662C452.131 274.724 451.51 274.786 450.888 274.786C449.956 274.848 449.024 274.91 448.03 274.972C447.408 274.972 446.787 275.034 446.103 275.034C445.358 275.034 444.55 275.034 443.804 275.034C443.12 275.034 442.499 275.034 441.816 274.972C441.132 274.972 440.386 274.91 439.703 274.848C439.019 274.786 438.336 274.724 437.652 274.662C436.968 274.6 436.285 274.538 435.601 274.413C434.918 274.351 434.296 274.227 433.613 274.103C432.867 273.979 432.121 273.855 431.438 273.73C430.816 273.606 430.195 273.482 429.636 273.358C428.766 273.172 427.834 272.923 427.026 272.737C426.467 272.613 425.907 272.427 425.348 272.302C425.037 272.24 424.727 272.116 424.416 271.992C423.546 271.744 422.676 271.433 421.806 271.123C421.557 270.999 421.309 270.937 421.06 270.875C420.315 270.564 419.569 270.254 418.823 269.943C418.45 269.757 418.078 269.633 417.705 269.447C416.648 268.95 415.592 268.391 414.535 267.832C406.084 262.99 401.921 256.595 401.921 250.2V254.67C401.921 261.065 406.084 267.398 414.535 272.302C415.53 272.861 416.586 273.42 417.643 273.917C418.015 274.103 418.45 274.227 418.823 274.413C419.445 274.662 420.066 274.972 420.687 275.22C420.812 275.283 420.936 275.283 421.06 275.345C421.309 275.469 421.557 275.531 421.806 275.593C422.676 275.903 423.546 276.214 424.416 276.462C424.727 276.586 425.037 276.648 425.348 276.773C425.534 276.835 425.721 276.897 425.907 276.959C426.28 277.083 426.653 277.145 426.964 277.207C427.834 277.455 428.766 277.642 429.636 277.89C429.884 277.952 430.071 278.014 430.319 278.076C430.692 278.138 431.065 278.201 431.376 278.263C432.121 278.387 432.867 278.573 433.613 278.635C433.924 278.697 434.234 278.759 434.545 278.821C434.856 278.883 435.229 278.883 435.539 278.946C436.223 279.07 436.968 279.132 437.652 279.194C437.963 279.256 438.336 279.256 438.708 279.318C439.019 279.318 439.33 279.318 439.641 279.38C440.386 279.442 441.07 279.442 441.816 279.504C442.188 279.504 442.561 279.566 442.934 279.566C443.245 279.566 443.493 279.566 443.804 279.566C444.55 279.566 445.358 279.566 446.103 279.566C446.476 279.566 446.911 279.566 447.284 279.566C447.533 279.566 447.781 279.504 447.967 279.504C448.9 279.442 449.894 279.38 450.826 279.318C451.199 279.256 451.634 279.256 452.007 279.256C452.193 279.256 452.38 279.194 452.566 279.194C452.877 279.132 453.125 279.132 453.436 279.07C454.43 278.946 455.424 278.821 456.419 278.635C456.667 278.573 456.854 278.573 457.102 278.511C457.227 278.511 457.351 278.449 457.475 278.449C457.972 278.387 458.469 278.263 458.904 278.138C459.65 277.952 460.458 277.828 461.204 277.642C461.763 277.518 462.384 277.331 462.944 277.145C463.689 276.959 464.373 276.773 465.056 276.524C465.243 276.462 465.367 276.462 465.553 276.4C466.423 276.09 467.293 275.779 468.163 275.469C468.288 275.407 468.412 275.407 468.474 275.345C469.406 274.972 470.338 274.6 471.27 274.165C471.519 274.041 471.768 273.917 472.016 273.793C473.01 273.296 474.005 272.799 474.937 272.302C475.123 272.178 475.31 272.116 475.434 271.992C475.807 271.744 476.18 271.495 476.552 271.247C477.05 270.937 477.547 270.626 478.044 270.254C478.479 269.943 478.852 269.633 479.287 269.26C479.722 268.888 480.157 268.577 480.592 268.205C480.654 268.143 480.778 268.081 480.84 267.957C481.4 267.46 481.897 266.901 482.394 266.404C482.518 266.28 482.58 266.218 482.704 266.094C482.953 265.784 483.264 265.411 483.512 265.101C483.699 264.852 483.885 264.604 484.072 264.294C484.134 264.231 484.196 264.107 484.258 264.045C484.569 263.549 484.942 263.052 485.19 262.555C485.314 262.369 485.377 262.245 485.439 262.059C485.501 261.934 485.563 261.872 485.625 261.748C485.874 261.189 486.122 260.693 486.309 260.134C486.371 260.072 486.371 259.948 486.371 259.886C486.495 259.451 486.619 259.016 486.744 258.644C486.806 258.333 486.93 258.085 486.992 257.775C486.992 257.651 487.054 257.526 487.054 257.402C487.054 257.278 487.054 257.216 487.117 257.092C487.179 256.471 487.303 255.912 487.303 255.291C487.303 255.167 487.303 255.043 487.303 254.919V250.449C487.427 251.132 487.365 251.877 487.303 252.622Z" fill="#B9B9B9"/>
<path d="M474.813 232.755C491.591 242.44 491.653 258.085 474.999 267.77C458.345 277.455 431.251 277.455 414.473 267.77C397.695 258.085 397.633 242.44 414.287 232.755C430.941 223.132 458.034 223.132 474.813 232.755Z" fill="#EDEDED"/>
<path d="M444.301 254.795L439.516 252.001L439.33 182.963L444.115 185.695L444.301 254.795Z" fill="#AFAFAF"/>
<path d="M444.115 185.695L439.33 182.963L444.985 179.672L449.77 182.466L444.115 185.695Z" fill="#00C0FF"/>
<path d="M449.77 182.466L449.956 251.504L444.301 254.795L444.115 185.695L449.77 182.466Z" fill="#D2D2D2"/>
<path d="M483.761 94.5547L480.592 92.6921L487.179 88.905L490.348 90.7675L483.761 94.5547Z" fill="#B0B0B0"/>
<path d="M398.814 143.601L395.644 141.739L402.169 137.952L405.401 139.752L398.814 143.601Z" fill="#009CD9"/>
<path d="M490.348 90.7675L490.472 134.599C490.534 154.963 476.18 179.797 458.407 190.041L431.127 205.81C413.355 216.054 398.938 207.859 398.876 187.433L398.751 143.601L405.338 139.814L405.463 182.59C405.525 200.036 417.891 207.052 433.053 198.298L456.419 184.825C471.581 176.072 483.885 154.839 483.823 137.393L483.699 94.6168L490.348 90.7675Z" fill="#D3D3D3"/>
<path d="M487.676 150.927C487.676 175.885 467.418 196.187 442.375 196.187H436.72C411.739 196.187 391.419 175.947 391.419 150.927V45.6942C391.419 20.7362 411.677 0.434586 436.72 0.434586H442.375C467.356 0.434586 487.676 20.6741 487.676 45.6942V150.927Z" fill="#EEEEEE"/>
<path d="M391.481 45.6942V150.927C391.481 172.781 407.016 191.034 427.585 195.256C441.815 187.619 451.447 172.657 451.447 155.397V50.1642C451.447 28.3105 435.912 10.0577 415.343 5.83594C401.113 13.4723 391.481 28.4968 391.481 45.6942Z" fill="#E2E2E2"/>
<path d="M429.201 61.712C439.578 63.202 480.84 69.2863 487.676 44.2041V54.1376C487.676 54.1376 476.428 76.8606 429.201 68.5412C425.597 67.9204 423.422 60.9049 429.201 61.712Z" fill="#CBCBCB"/>
<path d="M429.201 84.3728C439.578 85.8628 480.84 91.9471 487.676 66.865V76.7985C487.676 76.7985 476.428 99.5214 429.201 91.2021C425.597 90.5191 423.422 83.5657 429.201 84.3728Z" fill="#CBCBCB"/>
<path d="M429.201 106.972C439.578 108.462 480.84 114.546 487.676 89.4637V99.3972C487.676 99.3972 476.428 122.12 429.201 113.801C425.597 113.118 423.422 106.164 429.201 106.972Z" fill="#CBCBCB"/>
<path d="M429.201 129.57C439.578 131.06 480.84 137.145 487.676 112.062V121.996C487.676 121.996 476.428 144.719 429.201 136.4C425.597 135.779 423.422 128.763 429.201 129.57Z" fill="#CBCBCB"/>
<path opacity="0.4" d="M464.621 9.87143C464.621 15.0865 453.374 19.2462 439.578 19.2462C425.721 19.2462 414.535 15.0244 414.535 9.87143C414.535 4.71842 425.783 0.496674 439.578 0.496674C453.374 0.496674 464.621 4.71842 464.621 9.87143Z" fill="white"/>
<path d="M405.401 139.752L402.169 137.952L395.644 141.739L398.814 143.601L405.401 139.752Z" fill="#B0B0B0"/>
<path d="M427.399 198.173C427.15 198.297 426.964 198.359 426.777 198.483C425.969 198.856 425.162 199.166 424.416 199.415C424.354 199.415 424.354 199.415 424.292 199.477C423.608 199.725 422.924 199.849 422.303 200.035C421.93 200.098 421.557 200.222 421.184 200.284C420.687 200.346 420.19 200.47 419.755 200.532C419.444 200.532 419.196 200.594 418.947 200.594C418.326 200.656 417.767 200.656 417.145 200.656C417.021 200.656 416.897 200.656 416.772 200.656C416.089 200.594 415.405 200.532 414.722 200.408C414.535 200.408 414.411 200.346 414.225 200.284C413.727 200.16 413.23 200.035 412.733 199.849C412.547 199.787 412.423 199.725 412.236 199.663C412.174 199.663 412.112 199.601 412.05 199.601C413.106 200.408 414.225 201.091 415.467 201.526C415.592 201.588 415.716 201.65 415.84 201.65C415.902 201.65 415.902 201.65 415.902 201.65C416.4 201.836 416.897 201.96 417.456 202.084C417.58 202.146 417.705 202.146 417.829 202.146H417.891C418.575 202.271 419.258 202.333 419.942 202.395C420.066 202.395 420.19 202.395 420.314 202.395C420.377 202.395 420.377 202.395 420.439 202.395C420.998 202.395 421.557 202.395 422.117 202.333C422.365 202.333 422.614 202.271 422.924 202.271C422.924 202.271 422.924 202.271 422.987 202.271C423.484 202.208 423.981 202.146 424.416 202.022C424.789 201.96 425.162 201.898 425.534 201.774C425.534 201.774 425.534 201.774 425.596 201.774C426.28 201.588 426.964 201.401 427.647 201.215C427.647 201.215 427.647 201.215 427.709 201.215C427.709 201.215 427.771 201.215 427.771 201.153C428.517 200.905 429.325 200.594 430.071 200.222C430.257 200.16 430.506 200.035 430.692 199.911C431.562 199.539 432.37 199.104 433.24 198.608L438.957 196L431.127 196.124L430.009 196.745C429.076 197.366 428.206 197.8 427.399 198.173Z" fill="#B0B0B0"/>
<path d="M405.632 205.624C405.383 205.375 405.073 205.127 404.824 204.879C404.513 204.506 404.203 204.072 403.892 203.699C403.643 203.389 403.395 203.14 403.208 202.768C402.898 202.333 402.711 201.837 402.401 201.34C402.214 200.967 402.028 200.657 401.841 200.284C401.593 199.788 401.406 199.229 401.22 198.67C401.096 198.298 400.909 197.925 400.785 197.553C400.598 196.994 400.474 196.311 400.288 195.69C400.163 195.256 400.039 194.883 399.977 194.449C399.853 193.766 399.728 193.021 399.666 192.276C399.604 191.903 399.542 191.468 399.48 191.096C399.356 189.916 399.293 188.675 399.293 187.433L399.169 143.601L396 141.739L396.124 185.57C396.186 195.69 399.728 202.83 405.508 206.183L408.677 208.045C408.304 207.797 407.931 207.548 407.558 207.3C407.248 207.114 406.937 206.928 406.688 206.679C406.315 206.307 406.005 205.996 405.632 205.624Z" fill="#B0B0B0"/>
<path d="M429.946 199.912C429.139 200.284 428.393 200.595 427.647 200.843C427.585 200.843 427.585 200.905 427.523 200.905C426.839 201.154 426.156 201.34 425.472 201.464C425.099 201.588 424.727 201.65 424.354 201.712C423.857 201.837 423.359 201.899 422.924 201.961C422.676 201.961 422.365 202.023 422.117 202.023C421.557 202.085 420.998 202.085 420.439 202.085C420.314 202.085 420.128 202.085 420.004 202.085C419.32 202.085 418.637 201.961 417.953 201.837C417.829 201.837 417.642 201.775 417.518 201.712C417.021 201.588 416.462 201.464 415.965 201.278C415.778 201.216 415.654 201.154 415.467 201.092C414.225 200.595 413.044 199.974 412.05 199.167C408.011 196.001 405.587 190.351 405.587 182.59L405.463 139.814L398.876 143.601L399 187.433C399 188.675 399.062 189.916 399.186 191.096C399.249 191.531 399.311 191.903 399.373 192.276C399.435 193.021 399.559 193.766 399.684 194.449C399.746 194.883 399.87 195.256 399.994 195.69C400.119 196.311 400.305 196.932 400.491 197.553C400.616 197.987 400.802 198.298 400.926 198.67C401.113 199.229 401.299 199.788 401.548 200.284C401.734 200.657 401.921 200.967 402.107 201.34C402.356 201.837 402.604 202.333 402.915 202.768C403.101 203.078 403.35 203.389 403.598 203.699C403.909 204.134 404.22 204.568 404.531 204.879C404.779 205.189 405.028 205.375 405.338 205.624C405.711 205.934 406.022 206.307 406.395 206.617C406.706 206.865 407.016 207.052 407.265 207.238C413.168 211.398 421.744 211.273 431.251 205.748L449.769 195.69L437.244 196L433.178 198.236C432.059 198.919 431.003 199.415 429.946 199.912Z" fill="#D3D3D3"/>
<path d="M159 405.096L203.916 377.866L210.975 342.683L235.245 371.251L237.652 359.48L244.639 343.009L253.075 350.627L249.993 332.803H255.221L263.74 337.4L269.329 333.332L277.804 336.58L282.592 321.342L287.876 325.427L299.271 324.092V312.387L313.582 315.327L367 286" stroke="#00ACED" stroke-width="2" stroke-linecap="round"/>
<path d="M530 201.096L574.916 173.866L581.975 138.683L606.245 167.251L608.652 155.48L615.639 139.009L624.075 146.627L620.993 128.803H626.221L634.74 133.4L640.329 129.332L648.804 132.58L653.592 117.342L658.876 121.427L670.271 120.092V108.387L684.582 111.327L738 82" stroke="#00ACED" stroke-width="2" stroke-linecap="round"/>
</svg>
