<svg width="111" height="118" viewBox="0 0 111 118" fill="none" xmlns="http://www.w3.org/2000/svg">
<path fill-rule="evenodd" clip-rule="evenodd" d="M60.0842 118C67.3017 118 73.1526 114.866 73.1526 111C73.1526 107.134 67.3017 104 60.0842 104C52.8667 104 47.0158 107.134 47.0158 111C47.0158 114.866 52.8667 118 60.0842 118Z" fill="#E6E6E6"/>
<path fill-rule="evenodd" clip-rule="evenodd" d="M23.3774 85L47.0427 108.72C47.0427 108.72 49.8767 115.524 60.6614 114.956C71.4461 114.388 73.126 108.72 73.126 108.72L96.7911 85H23.3774Z" fill="#D8D8D8"/>
<path fill-rule="evenodd" clip-rule="evenodd" d="M60.0842 95C86.8313 95 108.514 83.3594 108.514 69C108.514 54.6406 86.8313 43 60.0842 43C33.3371 43 11.6542 54.6406 11.6542 69C11.6542 83.3594 33.3371 95 60.0842 95Z" fill="#E6E6E6"/>
<path fill-rule="evenodd" clip-rule="evenodd" d="M60.0842 90C86.8313 90 108.514 78.3594 108.514 64C108.514 49.6406 86.8313 38 60.0842 38C33.3371 38 11.6542 49.6406 11.6542 64C11.6542 78.3594 33.3371 90 60.0842 90Z" fill="white"/>
<path opacity="0.152623" d="M18.553 0C17.6673 0.499176 17.1692 1.3866 17.0584 2.27403V2.32949C17.0031 2.7732 0.205327 3.16145 0.316036 3.60516L21.1748 62.16C21.1748 62.16 21.4802 66.5227 22.3156 68.3643C26.8591 78.3804 39.6445 83.4502 59.4933 83.9699C78.5814 84.4698 91.3354 78.713 96.7765 68.5272C98.0335 66.1739 98.9656 61.5258 98.9656 61.5258L110.24 3.60516C110.462 3.10599 99.6467 3.10599 99.536 2.55135V2.32949H99.4807C99.3146 1.55299 98.8164 0.887425 98.0415 0.443712" fill="url(#paint0_linear)"/>
<path fill-rule="evenodd" clip-rule="evenodd" d="M55 48L47.4711 48.7951L44 56L51.6318 55.3214L55 48Z" fill="#00ACED"/>
<path fill-rule="evenodd" clip-rule="evenodd" d="M58.317 54.4188L55 48L51.6318 55.3214L56 61.158L58.317 54.4188Z" fill="#039DD8"/>
<path fill-rule="evenodd" clip-rule="evenodd" d="M51.6318 55.3213L44 55.9999L48.4454 61.9999L56 61.1579L51.6318 55.3213Z" fill="#0292C9"/>
<path fill-rule="evenodd" clip-rule="evenodd" d="M71.6444 22.8074L70.4638 30.2856L76.5248 35.5032L77.8445 27.9558L71.6444 22.8074Z" fill="#00ACED"/>
<path fill-rule="evenodd" clip-rule="evenodd" d="M78.7029 21.265L71.6444 22.8076L77.8446 27.9559L84.6129 25.2472L78.7029 21.265Z" fill="#039DD8"/>
<path fill-rule="evenodd" clip-rule="evenodd" d="M77.8445 27.9559L76.5248 35.5033L83.4709 32.7623L84.6129 25.2472L77.8445 27.9559Z" fill="#0292C9"/>
<path fill-rule="evenodd" clip-rule="evenodd" d="M70.9689 61.3123L77.8867 64.3881L84.4952 59.8841L77.5465 56.6559L70.9689 61.3123Z" fill="#00ACED"/>
<path fill-rule="evenodd" clip-rule="evenodd" d="M71.3058 54.095L70.9689 61.3122L77.5466 56.6558L76.6819 49.4171L71.3058 54.095Z" fill="#039DD8"/>
<path fill-rule="evenodd" clip-rule="evenodd" d="M77.5465 56.6558L84.4952 59.884L83.6454 52.4651L76.6819 49.417L77.5465 56.6558Z" fill="#0292C9"/>
<path fill-rule="evenodd" clip-rule="evenodd" d="M36.5 41.5L35.7049 33.9711L28.5 30.5L29.1786 38.1318L36.5 41.5Z" fill="#00ACED"/>
<path fill-rule="evenodd" clip-rule="evenodd" d="M30.0812 44.817L36.5 41.5L29.1786 38.1318L23.342 42.5L30.0812 44.817Z" fill="#039DD8"/>
<path fill-rule="evenodd" clip-rule="evenodd" d="M29.1786 38.1318L28.5 30.5L22.5 34.9454L23.342 42.5L29.1786 38.1318Z" fill="#0292C9"/>
<path fill-rule="evenodd" clip-rule="evenodd" d="M46 28C49.0376 28 51.5 25.5376 51.5 22.5C51.5 19.4624 49.0376 17 46 17C42.9624 17 40.5 19.4624 40.5 22.5C40.5 25.5376 42.9624 28 46 28Z" fill="#008FC5"/>
<mask id="mask0" mask-type="alpha" maskUnits="userSpaceOnUse" x="40" y="17" width="12" height="11">
<path fill-rule="evenodd" clip-rule="evenodd" d="M46 28C49.0376 28 51.5 25.5376 51.5 22.5C51.5 19.4624 49.0376 17 46 17C42.9624 17 40.5 19.4624 40.5 22.5C40.5 25.5376 42.9624 28 46 28Z" fill="white"/>
</mask>
<g mask="url(#mask0)">
<path fill-rule="evenodd" clip-rule="evenodd" d="M47 27C50.0376 27 52.5 24.5376 52.5 21.5C52.5 18.4624 50.0376 16 47 16C43.9624 16 41.5 18.4624 41.5 21.5C41.5 24.5376 43.9624 27 47 27Z" fill="#00ACED"/>
</g>
<path fill-rule="evenodd" clip-rule="evenodd" d="M62 42C65.0376 42 67.5 39.5376 67.5 36.5C67.5 33.4624 65.0376 31 62 31C58.9624 31 56.5 33.4624 56.5 36.5C56.5 39.5376 58.9624 42 62 42Z" fill="#008FC5"/>
<mask id="mask1" mask-type="alpha" maskUnits="userSpaceOnUse" x="56" y="31" width="12" height="11">
<path fill-rule="evenodd" clip-rule="evenodd" d="M62 42C65.0376 42 67.5 39.5376 67.5 36.5C67.5 33.4624 65.0376 31 62 31C58.9624 31 56.5 33.4624 56.5 36.5C56.5 39.5376 58.9624 42 62 42Z" fill="white"/>
</mask>
<g mask="url(#mask1)">
<path fill-rule="evenodd" clip-rule="evenodd" d="M63 41C66.0376 41 68.5 38.5376 68.5 35.5C68.5 32.4624 66.0376 30 63 30C59.9624 30 57.5 32.4624 57.5 35.5C57.5 38.5376 59.9624 41 63 41Z" fill="#00ACED"/>
</g>
<path fill-rule="evenodd" clip-rule="evenodd" d="M33.5 63C35.433 63 37 61.433 37 59.5C37 57.567 35.433 56 33.5 56C31.567 56 30 57.567 30 59.5C30 61.433 31.567 63 33.5 63Z" fill="#008FC5"/>
<mask id="mask2" mask-type="alpha" maskUnits="userSpaceOnUse" x="30" y="56" width="7" height="7">
<path fill-rule="evenodd" clip-rule="evenodd" d="M33.5 63C35.433 63 37 61.433 37 59.5C37 57.567 35.433 56 33.5 56C31.567 56 30 57.567 30 59.5C30 61.433 31.567 63 33.5 63Z" fill="white"/>
</mask>
<g mask="url(#mask2)">
<path fill-rule="evenodd" clip-rule="evenodd" d="M33.5 62C35.433 62 37 60.433 37 58.5C37 56.567 35.433 55 33.5 55C31.567 55 30 56.567 30 58.5C30 60.433 31.567 62 33.5 62Z" fill="#00ACED"/>
</g>
<path fill-rule="evenodd" clip-rule="evenodd" d="M65 77C67.2091 77 69 75.2091 69 73C69 70.7909 67.2091 69 65 69C62.7909 69 61 70.7909 61 73C61 75.2091 62.7909 77 65 77Z" fill="#008FC5"/>
<mask id="mask3" mask-type="alpha" maskUnits="userSpaceOnUse" x="61" y="69" width="8" height="8">
<path fill-rule="evenodd" clip-rule="evenodd" d="M65 77C67.2091 77 69 75.2091 69 73C69 70.7909 67.2091 69 65 69C62.7909 69 61 70.7909 61 73C61 75.2091 62.7909 77 65 77Z" fill="white"/>
</mask>
<g mask="url(#mask3)">
<path fill-rule="evenodd" clip-rule="evenodd" d="M66 76C68.2091 76 70 74.2091 70 72C70 69.7909 68.2091 68 66 68C63.7909 68 62 69.7909 62 72C62 74.2091 63.7909 76 66 76Z" fill="#00ACED"/>
</g>
<path fill-rule="evenodd" clip-rule="evenodd" d="M94 46C97.0376 46 99.5 43.5376 99.5 40.5C99.5 37.4624 97.0376 35 94 35C90.9624 35 88.5 37.4624 88.5 40.5C88.5 43.5376 90.9624 46 94 46Z" fill="#008FC5"/>
<mask id="mask4" mask-type="alpha" maskUnits="userSpaceOnUse" x="88" y="35" width="12" height="11">
<path fill-rule="evenodd" clip-rule="evenodd" d="M94 46C97.0376 46 99.5 43.5376 99.5 40.5C99.5 37.4624 97.0376 35 94 35C90.9624 35 88.5 37.4624 88.5 40.5C88.5 43.5376 90.9624 46 94 46Z" fill="white"/>
</mask>
<g mask="url(#mask4)">
<path fill-rule="evenodd" clip-rule="evenodd" d="M95 45C98.0376 45 100.5 42.5376 100.5 39.5C100.5 36.4624 98.0376 34 95 34C91.9624 34 89.5 36.4624 89.5 39.5C89.5 42.5376 91.9624 45 95 45Z" fill="#00ACED"/>
</g>
<path fill-rule="evenodd" clip-rule="evenodd" d="M66 15C69.0376 15 71.5 12.5376 71.5 9.5C71.5 6.46243 69.0376 4 66 4C62.9624 4 60.5 6.46243 60.5 9.5C60.5 12.5376 62.9624 15 66 15Z" fill="#008FC5"/>
<mask id="mask5" mask-type="alpha" maskUnits="userSpaceOnUse" x="60" y="4" width="12" height="11">
<path fill-rule="evenodd" clip-rule="evenodd" d="M66 15C69.0376 15 71.5 12.5376 71.5 9.5C71.5 6.46243 69.0376 4 66 4C62.9624 4 60.5 6.46243 60.5 9.5C60.5 12.5376 62.9624 15 66 15Z" fill="white"/>
</mask>
<g mask="url(#mask5)">
<path fill-rule="evenodd" clip-rule="evenodd" d="M67 14C70.0376 14 72.5 11.5376 72.5 8.5C72.5 5.46243 70.0376 3 67 3C63.9624 3 61.5 5.46243 61.5 8.5C61.5 11.5376 63.9624 14 67 14Z" fill="#00ACED"/>
<path d="M65 11.0947L63 34.0001" stroke="#0292C9" stroke-linecap="round"/>
<path d="M61.5 11.8569L47 21.7834" stroke="#0292C9" stroke-linecap="round"/>
</g>
<defs>
<linearGradient id="paint0_linear" x1="91.6215" y1="72.4296" x2="91.6215" y2="17.0148" gradientUnits="userSpaceOnUse">
<stop stop-color="#00ACED"/>
<stop offset="1" stop-color="#FDFDFD" stop-opacity="0.01"/>
</linearGradient>
</defs>
</svg>
