<svg width="50" height="76" viewBox="0 0 50 76" fill="none" xmlns="http://www.w3.org/2000/svg">
<path fill-rule="evenodd" clip-rule="evenodd" d="M0.115112 20.0226L46.3235 46.0281L46.6639 75.853L46.8441 30.9827L0.179389 3.94739L0.115112 20.0226Z" fill="#D5D5D5"/>
<path fill-rule="evenodd" clip-rule="evenodd" d="M0.180147 19.492L0.127206 19.6034L0 48.8177L46.664 75.853L46.7912 46.4971L0.180147 19.492" fill="#F4F4F4"/>
<path fill-rule="evenodd" clip-rule="evenodd" d="M46.8441 30.9827L49.3412 29.5262L2.67797 2.49084L0.179443 3.94739L46.8441 30.9827" fill="#EEEEEE"/>
<path fill-rule="evenodd" clip-rule="evenodd" d="M38.8588 37.561L32.7419 33.9978L32.7316 30.3351L32.7206 27.301L38.8323 30.8648L38.836 31.9311L38.8588 37.561" fill="white"/>
<path fill-rule="evenodd" clip-rule="evenodd" d="M38.6846 30.7793L32.7448 34L32.7206 27.301L38.6846 30.7793" fill="#C9C9C9"/>
<path fill-rule="evenodd" clip-rule="evenodd" d="M37.0742 32.5044L37.1581 32.5479L37.2242 32.5811L37.2823 32.6069C37.3669 32.6475 37.4514 32.6807 37.536 32.7176L37.7117 32.7796C37.7889 32.8091 37.8691 32.8349 37.9492 32.8571L38.0044 32.8718L38.0117 32.8755L38.0411 32.8792L38.0595 32.8829C38.1581 32.908 38.261 32.9272 38.3603 32.9456L38.4007 32.9523L38.5066 32.9678C38.5904 32.9818 38.6786 32.9892 38.7698 32.9928L38.836 32.9965L38.8323 31.934L38.4808 31.7281L38.3529 31.765L38.2206 31.8012C38.0706 31.8381 37.9198 31.8676 37.7661 31.8897C37.6272 31.9082 37.4875 31.9193 37.3522 31.9266L37.2242 31.9303C37.1323 31.934 37.0411 31.934 36.9492 31.9303L36.8066 31.9229C36.7176 31.9156 36.6301 31.9045 36.5419 31.8934L36.4139 31.8787C36.3294 31.8639 36.2492 31.8492 36.1654 31.8278L37.0742 32.5044" fill="#ACADAA"/>
<path fill-rule="evenodd" clip-rule="evenodd" d="M32.1515 26.436L32.1699 26.2752C32.1787 26.1918 32.1868 26.1092 32.1986 26.0273L32.2258 25.8568C32.2383 25.7786 32.2493 25.7004 32.264 25.6229L32.3008 25.4458C32.3155 25.3713 32.3302 25.296 32.3471 25.2223L32.392 25.043C32.4104 24.9714 32.428 24.8983 32.4471 24.8268L32.5001 24.6475C32.5214 24.5774 32.5412 24.5065 32.564 24.4364L32.6251 24.2586L32.6942 24.0594C32.7648 23.8675 32.842 23.6794 32.9243 23.4934L32.9729 23.3857C33.0552 23.2027 33.1434 23.0234 33.2368 22.8471L33.2942 22.743C33.3611 22.6205 33.4317 22.4988 33.503 22.3785L33.5684 22.2708C33.6589 22.1254 33.7523 21.9823 33.8493 21.8421L33.9096 21.7587C33.9861 21.6517 34.0633 21.5462 34.1442 21.4429L34.2354 21.3271C34.3177 21.223 34.4023 21.1219 34.4883 21.0216L34.5508 20.9485C34.6589 20.8268 34.7692 20.7087 34.8817 20.5929L34.9699 20.5066C35.0582 20.4188 35.1486 20.3317 35.2405 20.2476L35.3434 20.1539C35.4714 20.0395 35.6008 19.9281 35.7346 19.8226L35.7699 19.7945C35.8934 19.6979 36.0199 19.6049 36.1479 19.5141L36.2479 19.4448C36.4162 19.3289 36.589 19.2197 36.764 19.1164L36.8493 19.0685C37.0309 18.9644 37.2155 18.8663 37.4045 18.777L37.4684 18.7482C37.603 18.6863 37.739 18.628 37.8773 18.5734L37.9979 18.5261C38.1559 18.4664 38.3148 18.4103 38.4765 18.3616L38.5177 18.3498C38.6677 18.3048 38.8184 18.2664 38.9714 18.231L39.1001 18.2022C39.2662 18.1668 39.4339 18.1343 39.6023 18.1107C39.767 18.0878 39.9302 18.0723 40.0912 18.0613L40.1912 18.0539C40.3479 18.045 40.503 18.0414 40.6567 18.0428L40.7383 18.0458C40.8817 18.0487 41.0229 18.0569 41.1626 18.0694L41.2243 18.0738C41.3758 18.0886 41.5243 18.11 41.6707 18.1351L41.7662 18.152C41.9118 18.1793 42.0559 18.2103 42.1979 18.2472C42.3854 18.2959 42.5684 18.3542 42.7479 18.4199L42.9023 18.4811C43.0302 18.5313 43.1567 18.5852 43.281 18.6442C43.3868 18.6944 43.4927 18.7438 43.5957 18.7999L41.6317 17.7278C41.5567 17.6864 41.4809 17.6473 41.4037 17.609L41.317 17.5721C41.1927 17.5138 41.067 17.4592 40.9383 17.409L40.7839 17.3478C40.6045 17.2828 40.4214 17.2238 40.2339 17.1751L40.2221 17.1714C40.0846 17.136 39.9442 17.1065 39.803 17.0799L39.7074 17.0629C39.5604 17.0379 39.4118 17.0172 39.2611 17.0024L39.1993 16.9973C39.0589 16.9847 38.9177 16.9766 38.7743 16.9737L38.6927 16.9715C38.539 16.9692 38.3839 16.9737 38.2273 16.9818L38.128 16.9892C37.9662 17.0002 37.803 17.0157 37.6383 17.0386C37.4699 17.0629 37.3023 17.0947 37.1361 17.1301L37.0074 17.1589C36.8552 17.1943 36.7037 17.2334 36.5537 17.2777L36.5126 17.2895C36.3515 17.3382 36.192 17.3943 36.0346 17.454L35.9133 17.5012C35.7758 17.5558 35.6398 17.6141 35.5045 17.6761L35.4545 17.6983L35.4405 17.7049C35.2515 17.7942 35.067 17.8923 34.8854 17.9963L34.8001 18.0443C34.6251 18.1476 34.453 18.2568 34.2846 18.3727L34.2398 18.4007L34.1839 18.442C34.0559 18.5328 33.9302 18.6257 33.8067 18.7231L33.7707 18.7504C33.6368 18.8567 33.5074 18.9674 33.3795 19.0817L33.3354 19.1186L33.2765 19.1762C33.1846 19.2603 33.0942 19.3466 33.0059 19.4344L32.9184 19.5215C32.8052 19.6366 32.6949 19.7547 32.5876 19.8764L32.5729 19.8927L32.5243 19.9495C32.4383 20.0498 32.3537 20.1516 32.2714 20.255L32.1802 20.3715C32.1001 20.4748 32.0221 20.5796 31.9457 20.6866L31.8993 20.7501L31.8854 20.7707C31.7883 20.9109 31.6949 21.0533 31.6045 21.1987L31.5398 21.3071C31.4677 21.4267 31.3979 21.5477 31.3309 21.6702L31.2898 21.7417L31.2729 21.7757C31.1795 21.952 31.0912 22.1313 31.0089 22.3136L30.9604 22.4213C30.8787 22.6073 30.8008 22.7962 30.7302 22.988L30.7236 23.0042L30.6611 23.185L30.6001 23.3643C30.578 23.4337 30.5582 23.5038 30.5368 23.5731L30.4832 23.7554C30.464 23.8262 30.4464 23.897 30.4287 23.9694L30.3832 24.1501C30.3662 24.2239 30.3515 24.2984 30.3368 24.3737L30.3001 24.5508C30.2861 24.6275 30.2751 24.7043 30.2626 24.781L30.2346 24.9559C30.2236 25.0363 30.2155 25.1175 30.2059 25.1994L30.1876 25.3647C30.1787 25.4532 30.1736 25.5432 30.1677 25.6325L30.1582 25.7764C30.1515 25.9144 30.1479 26.0524 30.1471 26.1911C30.142 29.0717 31.5258 31.4056 33.6155 32.5456L35.5795 33.6177C33.4898 32.4769 32.1059 30.1438 32.1111 27.2632C32.1118 27.1245 32.1155 26.9857 32.1221 26.8485L32.1309 26.7157C32.1368 26.6227 32.142 26.529 32.1515 26.436Z" fill="#1C1F26"/>
<path fill-rule="evenodd" clip-rule="evenodd" d="M34.0623 21.0061C33.5703 21.6028 33.1458 22.2596 32.8018 22.9622C32.1472 24.276 31.7766 25.7497 31.7728 27.2608C31.7728 28.2903 31.9429 29.2551 32.2573 30.1207C33.2445 32.8595 35.9215 34.6479 38.836 34.606L38.8239 31.769C36.8753 31.6669 35.0457 30.3036 34.5385 28.3246C34.4215 27.8765 34.3608 27.398 34.3608 26.8966C34.3653 25.9585 34.5802 25.0471 34.9592 24.2188C35.2887 23.501 35.7421 22.8441 36.2835 22.297C37.1652 21.4046 38.2898 20.7859 39.5048 20.6152C42.335 20.2159 44.6321 22.3808 44.6253 25.4457C44.6253 25.9852 44.5531 26.5163 44.4164 27.0292L46.6384 28.3208C47.0089 27.2951 47.214 26.1978 47.214 25.0814C47.2254 20.4666 43.774 17.2081 39.5078 17.8086C37.3884 18.1081 35.4626 19.3045 34.0623 21.0061Z" fill="#363B45"/>
<path fill-rule="evenodd" clip-rule="evenodd" d="M37.0742 31.0956C36.7404 30.9148 36.436 30.6868 36.1654 30.419L37.0742 31.0956Z" fill="#D6D5D0"/>
<path fill-rule="evenodd" clip-rule="evenodd" d="M9.98968 20.5901L3.8735 17.0262L3.86247 13.3642L3.85144 10.3301L9.96394 13.8932L9.96762 14.9602L9.98968 20.5901" fill="white"/>
<path fill-rule="evenodd" clip-rule="evenodd" d="M9.81617 13.8077L3.87573 17.0284V9.92914L9.81617 13.3862" fill="#C9C9C9"/>
<path fill-rule="evenodd" clip-rule="evenodd" d="M8.26173 14.1624L8.34555 14.2059L8.41173 14.2391L8.47055 14.2657C8.55511 14.3055 8.63893 14.3388 8.72349 14.3756L8.89923 14.4376C8.97643 14.4671 9.05658 14.493 9.13746 14.5151L9.19261 14.5299L9.19996 14.5335L9.22938 14.5372L9.24776 14.5409C9.34629 14.5668 9.44849 14.5852 9.54776 14.6036L9.5882 14.611L9.69408 14.6258C9.77938 14.6405 9.86688 14.6479 9.95879 14.6516L10.0242 14.6553L10.0206 13.592L9.66835 13.3862L9.54041 13.4231L9.40879 13.46C9.25879 13.4968 9.10805 13.5264 8.95438 13.5478C8.81467 13.5662 8.6757 13.5773 8.54041 13.5847L8.41173 13.5891C8.31982 13.592 8.22864 13.592 8.13673 13.5891L7.99408 13.581C7.90658 13.5736 7.81835 13.5625 7.73011 13.5515L7.60217 13.5374C7.51761 13.5227 7.43673 13.5079 7.35291 13.4858L8.26173 14.1624" fill="#ACADAA"/>
<path fill-rule="evenodd" clip-rule="evenodd" d="M3.45442 9.7448C3.45957 9.65183 3.46545 9.55886 3.47428 9.46588L3.49266 9.30429C3.50222 9.22165 3.51031 9.13901 3.52133 9.05637L3.54854 8.88592C3.56104 8.80845 3.57281 8.73023 3.58678 8.65202L3.62354 8.47493C3.63898 8.40041 3.65295 8.32588 3.66986 8.25136L3.71545 8.07206C3.7331 8.00049 3.75075 7.92744 3.76986 7.85587L3.82281 7.67656C3.84413 7.60647 3.86398 7.53563 3.88678 7.46553L3.94781 7.28771L4.01692 7.08849C4.08751 6.89738 4.16545 6.70849 4.24781 6.52254L4.2956 6.41482C4.37795 6.23256 4.46619 6.05326 4.56031 5.87618L4.61766 5.77214C4.68457 5.64965 4.75442 5.5279 4.82648 5.40837L4.89192 5.2999C4.98236 5.15454 5.07575 5.0114 5.17207 4.87121L5.23236 4.78783C5.30883 4.68084 5.38678 4.57606 5.46692 4.47202L5.5581 4.35618C5.64045 4.25287 5.72501 4.15105 5.81178 4.05144L5.87501 3.97765C5.98163 3.85664 6.09192 3.73785 6.20516 3.62274L6.29266 3.53567C6.38089 3.44787 6.47133 3.36153 6.56325 3.27668L6.66692 3.18297C6.79486 3.06934 6.92354 2.95792 7.05736 2.85167L7.09339 2.82437C7.21692 2.72697 7.34339 2.634 7.4706 2.54324L7.57134 2.47388C7.73972 2.35878 7.91178 2.24884 8.08751 2.14627L8.17281 2.09757C8.35442 1.99427 8.53898 1.8954 8.72722 1.80686L8.79119 1.77808C8.92648 1.71536 9.06251 1.65781 9.20001 1.60247L9.3206 1.55524C9.47869 1.49548 9.63825 1.44014 9.79928 1.3907L9.84045 1.37963C9.99045 1.33462 10.1419 1.29552 10.2941 1.2601L10.4228 1.23132C10.5897 1.1959 10.7566 1.16418 10.9257 1.13983C11.0897 1.11695 11.253 1.1022 11.4147 1.09039L11.514 1.08375C11.6706 1.07489 11.8257 1.07047 11.9794 1.07268L12.0618 1.07489C12.2044 1.07858 12.3456 1.08596 12.486 1.09851L12.5478 1.10367C12.6985 1.11843 12.8471 1.13909 12.9941 1.16418L13.0897 1.18188C13.2346 1.20845 13.3794 1.23944 13.5206 1.27633C13.7081 1.32503 13.8912 1.38332 14.0706 1.44899L14.225 1.51023C14.3537 1.56115 14.4802 1.61427 14.6044 1.67404C14.7096 1.72348 14.8162 1.77291 14.9184 1.82899L12.9544 0.756875C12.8802 0.716292 12.8037 0.676448 12.7272 0.638817L12.6405 0.601185C12.5162 0.542894 12.3897 0.48903 12.261 0.438117L12.1074 0.376875C11.9272 0.311943 11.7441 0.252914 11.5566 0.204215L11.5449 0.200525C11.4074 0.165108 11.2677 0.136331 11.1257 0.10903L11.0302 0.0920592C10.8831 0.0669719 10.7346 0.0463117 10.5846 0.0315544L10.5221 0.0263893C10.3816 0.0138457 10.2405 0.00646701 10.0985 0.00277769L10.0155 0.000564099C9.86178 -0.00164949 9.70663 0.00277769 9.55148 0.0116321L9.45075 0.0182728C9.28898 0.0293408 9.12648 0.0448359 8.96251 0.0684476C8.79266 0.0920592 8.62575 0.123787 8.45883 0.159205L8.33016 0.187982C8.17795 0.223399 8.02648 0.262506 7.87648 0.307516L7.83604 0.318584C7.67428 0.367283 7.51545 0.424098 7.35736 0.483865L7.23604 0.531088C7.09928 0.584952 6.96251 0.643982 6.82722 0.705962L6.77722 0.72736L6.76398 0.734739C6.57575 0.82402 6.39119 0.921418 6.20884 1.02546L6.12354 1.07416C5.94781 1.17672 5.77648 1.28666 5.60736 1.40177L5.56325 1.42981L5.50736 1.47187C5.37942 1.56188 5.25295 1.65486 5.12942 1.75225L5.09339 1.78029C4.96031 1.88581 4.83089 1.99722 4.70295 2.11086L4.65883 2.14849L4.59928 2.2053C4.50736 2.28942 4.41766 2.37575 4.32869 2.46355L4.24192 2.55062C4.12869 2.66573 4.01766 2.78379 3.91104 2.90553L3.8956 2.92177L3.84781 2.97932C3.76178 3.07893 3.67648 3.18076 3.59413 3.2848L3.50295 3.40064C3.42354 3.50394 3.34486 3.60946 3.26986 3.71571L3.22207 3.77917L3.20957 3.79983C3.11178 3.94002 3.01839 4.08317 2.92795 4.22779L2.86325 4.33625C2.79045 4.45579 2.7206 4.5768 2.65442 4.69928L2.61325 4.77086L2.59634 4.8048C2.50295 4.98115 2.41472 5.16045 2.33163 5.3427L2.28383 5.45043C2.20148 5.63711 2.12354 5.82526 2.05295 6.01711L2.04634 6.03408L1.98457 6.21412L1.92354 6.39342C1.90075 6.46278 1.88089 6.53287 1.86031 6.60297L1.80589 6.78449C1.78678 6.85532 1.76986 6.92689 1.75222 6.99847L1.70663 7.17924C1.68972 7.25377 1.67575 7.32829 1.65957 7.40282L1.62354 7.5799C1.60957 7.65664 1.59781 7.73338 1.58604 7.81012L1.55736 7.98499C1.54707 8.06616 1.53825 8.14732 1.52942 8.22849L1.51031 8.39377C1.50148 8.48305 1.49634 8.57233 1.49119 8.66161L1.48089 8.80623C1.47428 8.94421 1.4706 9.08219 1.4706 9.22091C1.46472 12.1008 2.84928 14.4347 4.93825 15.5747L6.90222 16.6468C4.81251 15.5068 3.42869 13.1729 3.43383 10.2923C3.43457 10.1536 3.43825 10.0156 3.44486 9.87761L3.45442 9.7448" fill="#1C1F26"/>
<path fill-rule="evenodd" clip-rule="evenodd" d="M5.23446 4.07285C4.74239 4.66952 4.31866 5.32639 3.97466 6.02898C3.31932 7.34272 2.94874 8.81648 2.94495 10.3283C2.94495 11.3571 3.11505 12.3218 3.42943 13.1882C4.41738 15.9262 7.07527 17.7147 9.98975 17.6728L9.97836 14.8365C8.02904 14.7336 6.21862 13.3704 5.71135 11.3914C5.59365 10.9433 5.53366 10.4648 5.53366 9.96334C5.53746 9.02528 5.75312 8.11389 6.13129 7.28633C6.46086 6.56849 6.91496 5.91086 7.4564 5.36449C8.33803 4.47215 9.46191 3.85262 10.6769 3.68193C13.5079 3.28338 15.805 5.44755 15.7974 8.51243C15.7974 9.05195 15.7252 9.58385 15.5901 10.0959L17.8105 11.3876C18.1818 10.3626 18.3861 9.26456 18.3861 8.14818C18.3975 3.53409 14.9461 0.274889 10.6807 0.875369C8.56129 1.17485 6.63551 2.372 5.23446 4.07285Z" fill="#363B45"/>
<path fill-rule="evenodd" clip-rule="evenodd" d="M8.20521 14.1624C7.87139 13.9823 7.56771 13.7543 7.29639 13.4858L8.20521 14.1624Z" fill="#D6D5D0"/>
<path fill-rule="evenodd" clip-rule="evenodd" d="M31.0824 39.8327L32.7963 42.8166L15.975 52.2237L12.0618 45.3991L15.025 43.7965L17.2191 47.6386L31.0824 39.8327" fill="#00ACED"/>
<path fill-rule="evenodd" clip-rule="evenodd" d="M46.3235 75.8414L48.8213 74.3848L49.0007 29.5146L46.5036 30.9711L46.3235 75.8414" fill="#A8A8A8"/>
<path fill-rule="evenodd" clip-rule="evenodd" d="M46.4544 46.4847L46.3235 75.8414L48.8213 74.3848L48.9404 44.6533L46.4544 46.4847" fill="#D7D7D7"/>
</svg>
