<svg width="216" height="75" viewBox="0 0 216 75" fill="none" xmlns="http://www.w3.org/2000/svg">
<path d="M189.942 2.43865C190.218 2.11656 190.218 1.61043 189.896 1.28834L189.115 0.506132C188.931 0.322083 188.747 0.27607 188.517 0.27607C188.288 0.27607 188.058 0.368095 187.92 0.552144C182.635 6.44172 182.635 15.4141 187.92 21.3037C188.058 21.4877 188.288 21.5798 188.517 21.5798C188.747 21.5798 188.977 21.4877 189.115 21.3497L189.896 20.5675C190.218 20.2454 190.218 19.7393 189.942 19.4172C185.668 14.5859 185.668 7.26994 189.942 2.43865Z" fill="#3EB4F0"/>
<path d="M193.343 4.73926L192.562 3.95705C192.378 3.773 192.194 3.68098 191.918 3.72699C191.688 3.72699 191.459 3.81901 191.321 4.00306C187.966 8.00613 187.966 13.8497 191.321 17.8528C191.459 18.0368 191.688 18.1288 191.918 18.1288C192.148 18.1288 192.378 18.0368 192.562 17.8988L193.343 17.1166C193.665 16.7945 193.665 16.3344 193.389 16.0123C190.953 13.0675 190.953 8.83435 193.389 5.88957C193.665 5.52147 193.665 5.06135 193.343 4.73926Z" fill="#363B45"/>
<path d="M206.119 4.00306C205.981 3.81902 205.752 3.72699 205.522 3.72699C205.292 3.72699 205.062 3.81902 204.878 3.95705L204.097 4.73926C203.775 5.06135 203.775 5.52147 204.051 5.84356C206.487 8.78834 206.487 13.0215 204.051 15.9663C203.775 16.2883 203.775 16.7945 204.097 17.0705L204.878 17.8528C205.062 18.0368 205.246 18.0828 205.522 18.0828C205.752 18.0828 205.981 17.9908 206.119 17.8067C209.474 13.8497 209.474 8.00613 206.119 4.00306Z" fill="#363B45"/>
<path d="M209.566 0.552144C209.428 0.368095 209.198 0.27607 208.968 0.27607C208.739 0.27607 208.509 0.368095 208.371 0.506132L207.59 1.28834C207.268 1.61043 207.268 2.11656 207.544 2.43865C211.818 7.26994 211.818 14.5859 207.544 19.4172C207.268 19.7393 207.268 20.2454 207.59 20.5675L208.371 21.3497C208.555 21.5337 208.739 21.5798 208.968 21.5798C209.198 21.5798 209.428 21.4877 209.566 21.3037C214.851 15.4141 214.851 6.44172 209.566 0.552144Z" fill="#3EB4F0"/>
<path d="M183.003 49.3712L179.602 36.9479L176.201 49.3712H170.502L164.436 28.0215H170.364L173.811 41.7331L176.752 28.0215H182.451L185.806 41.7331L189.069 28.0215H194.86L188.747 49.3712H183.003Z" fill="#363B45"/>
<path d="M209.29 49.3712L204.603 39.8006L201.891 42.6074V49.3712H196.192V10.8589H201.891V36.1656L208.923 28.0675H215.816L208.647 35.8896L215.632 49.3712H209.29Z" fill="#363B45"/>
<path fill-rule="evenodd" clip-rule="evenodd" d="M33.1813 44.0337C32.3081 43.0675 31.8485 41.7791 31.7566 40.1687V40.0767H46.463C46.463 35.8436 45.6357 32.6687 43.9353 30.5521C42.2349 28.4356 39.7532 27.3773 36.4443 27.3773C34.7898 27.3773 33.3651 27.6534 32.0783 28.1595C30.8374 28.6656 29.7345 29.4018 28.8613 30.3681C27.9881 31.3344 27.2987 32.4847 26.8391 33.819C26.3796 35.1534 26.1498 36.6258 26.1498 38.2822C26.1498 46.0583 29.6885 49.9233 36.8119 49.9233C39.0638 49.9233 41.04 49.3252 42.6945 48.1288C44.303 46.9785 45.4979 45.2761 46.1413 43.0675H40.3506C40.1208 43.8037 39.6613 44.4018 38.9719 44.816C38.2825 45.2301 37.4553 45.4601 36.5362 45.4601C35.1574 45.4601 34.0085 45 33.1813 44.0337ZM40.2128 34.5552C40.4425 35.1534 40.5804 35.8436 40.6264 36.6258H31.8945C32.0323 35.1534 32.4919 34.0031 33.3191 33.1748C34.1464 32.3466 35.1115 31.9325 36.2604 31.9325C36.8119 31.9325 37.3634 32.0245 37.8689 32.2086C38.3745 32.3926 38.834 32.7147 39.2477 33.0828C39.6613 33.4509 39.983 33.9571 40.2128 34.5552Z" fill="#363B45"/>
<path d="M64.4323 49.3712L61.0315 36.9479L57.6306 49.3712H51.886L45.8196 28.0215H51.7481L55.2409 41.7331L58.1821 28.0215H63.8809L67.2358 41.7331L70.4987 28.0215H76.2894L70.177 49.3712H64.4323Z" fill="#363B45"/>
<path fill-rule="evenodd" clip-rule="evenodd" d="M126.567 54.2945C127.026 53.1902 127.21 51.9479 127.21 50.5675H121.833C121.833 51.9939 121.649 53.0061 121.236 53.6043C120.868 54.2025 120.225 54.5245 119.397 54.5245C118.478 54.5245 117.789 54.2485 117.329 53.6963C116.824 53.1442 116.594 52.1319 116.594 50.6595V28.0675H111.171L111.125 30.6902C109.838 28.5736 107.862 27.5153 105.197 27.5153C103.864 27.5153 102.623 27.7914 101.474 28.2976C100.371 28.8037 99.406 29.5859 98.5787 30.5522C97.7515 31.5184 97.1081 32.7147 96.6485 34.1411C96.189 35.5675 95.9592 37.1779 95.9592 38.9724C95.9592 40.6288 96.189 42.1012 96.5566 43.4356C96.9243 44.7699 97.5217 45.9663 98.257 46.9325C98.9924 47.9448 99.9115 48.681 101.014 49.2331C102.117 49.7393 103.358 50.0153 104.737 50.0153C107.311 50.0153 109.379 48.911 110.987 46.7945V50.6595C110.987 51.9479 111.171 53.1442 111.585 54.2485C111.998 55.3528 112.55 56.273 113.285 57.0552C114.02 57.8374 114.894 58.4816 115.859 58.8957C116.87 59.3098 117.927 59.5399 119.076 59.5399C120.225 59.5399 121.328 59.3098 122.293 58.8957C123.304 58.4816 124.131 57.8834 124.866 57.1012C125.556 56.319 126.153 55.3988 126.567 54.2945ZM111.355 38.1902C111.355 42.8374 109.792 45.138 106.621 45.138C103.404 45.138 101.796 42.9295 101.796 38.5123C101.796 36.6258 102.209 35.0614 103.129 33.865C104.002 32.6687 105.151 32.0706 106.575 32.0706C107.954 32.0706 109.057 32.6227 109.976 33.773C110.895 34.8773 111.355 36.3497 111.355 38.1902Z" fill="#363B45"/>
<path d="M132.817 49.3712V46.3804C131.392 48.773 129.14 49.9233 126.199 49.9233C125.142 49.9233 124.131 49.7393 123.258 49.3712C122.385 49.0031 121.603 48.4509 120.96 47.7607C120.317 47.0706 119.811 46.2423 119.443 45.2761C119.076 44.3098 118.892 43.2515 118.892 42.0552V27.9755H124.545V41.181C124.545 43.8497 125.74 45.1841 128.129 45.1841C129.554 45.1841 130.657 44.7239 131.392 43.8037C132.128 42.8834 132.495 41.7331 132.495 40.3068V27.9755H138.102V49.3252H132.817V49.3712Z" fill="#363B45"/>
<path d="M94.8102 40.3067C94.4885 39.5705 93.937 38.9724 93.1558 38.4663C92.3745 37.9601 91.3634 37.546 90.1226 37.1779C88.8358 36.8098 87.2732 36.3957 85.4349 35.8436C84.286 35.5215 83.4587 35.1994 82.8613 34.8313C82.2638 34.4632 81.9881 34.0031 81.9881 33.4509C81.9881 32.8067 82.2638 32.3006 82.8613 32.0245C83.4587 31.7485 84.286 31.6104 85.4349 31.6104H85.4809C86.7217 31.6104 87.5949 31.8405 88.1923 32.3006C88.7898 32.7607 89.1575 33.4509 89.2953 34.4632H94.6723C94.5345 32.2546 93.7532 30.5521 92.3285 29.3098C90.9038 28.0675 88.6519 27.4233 85.6187 27.4233C85.5268 27.4233 85.4809 27.4233 85.3889 27.4233C83.8264 27.4233 82.4477 27.6074 81.3447 27.9294C80.1958 28.2515 79.2306 28.7117 78.5413 29.2638C77.806 29.8159 77.3004 30.4601 76.9787 31.1503C76.657 31.8865 76.4732 32.6227 76.4732 33.4509C76.4732 34.3712 76.6111 35.1534 76.8409 35.8896C77.0707 36.6258 77.5762 37.2699 78.2655 37.8681C78.9549 38.4663 79.966 39.0184 81.2528 39.5245C82.3558 39.9386 83.7345 40.3528 85.4349 40.7669C85.7106 40.8589 85.9864 40.9049 86.3081 40.9509C87.457 41.227 88.3302 41.5031 88.8817 41.8712C89.4332 42.1932 89.7089 42.7914 89.7089 43.5736C89.7089 44.2638 89.3413 44.7699 88.56 45.092C87.7787 45.4141 86.8596 45.5982 85.8026 45.5982C85.6647 45.5982 85.5728 45.5521 85.4349 45.5521C84.3319 45.5061 83.4128 45.2761 82.7234 44.7699C81.9421 44.2178 81.5285 43.4356 81.5285 42.4233H75.7379C75.7838 43.5736 76.0136 44.5859 76.4732 45.5061C76.9328 46.4264 77.6221 47.2086 78.4953 47.8528C79.3685 48.4969 80.4255 49.0031 81.6664 49.3251C82.7694 49.6472 84.0562 49.7853 85.3889 49.8313C85.5268 49.8313 85.6647 49.8773 85.8485 49.8773C88.9736 49.8773 91.3175 49.2331 92.926 47.9908C94.5345 46.7485 95.3157 45.138 95.3157 43.2515C95.2698 42.0552 95.1319 41.089 94.8102 40.3067Z" fill="#363B45"/>
<path d="M152.487 43.6196C151.843 45 150.97 45.6902 149.821 45.6902C148.81 45.6902 147.937 45 147.294 43.6656C146.604 42.3313 146.283 40.6748 146.283 38.7423C146.283 36.5798 146.604 34.9233 147.294 33.681C147.983 32.4387 148.81 31.8405 149.821 31.8405C150.511 31.8405 151.154 32.1626 151.751 32.8067C152.395 33.4509 153.176 35.3834 154.187 38.6503L157.404 49.5552H163.7L159.289 38.2362L163.195 28.0675H156.899L155.704 32.0706C154.187 29.0798 152.027 27.6074 149.224 27.6074C146.466 27.6074 144.26 28.6196 142.56 30.6442C140.86 32.6687 140.032 35.3374 140.032 38.6043C140.032 41.7791 140.814 44.4479 142.422 46.6564C143.985 48.865 146.053 49.9693 148.626 49.9693C151.292 49.9693 153.452 48.4509 155.06 45.3681L153.682 40.6288C153.268 41.7331 152.9 42.7454 152.487 43.6196Z" fill="#3EB4F0"/>
<path d="M10.1667 49.2331V33.9765C10.9789 32.5902 12.1972 31.897 13.8216 31.897C15.0598 31.897 15.9452 32.1736 16.4778 32.7268C17.0104 33.28 17.2767 34.1698 17.2767 35.3962V35.3962V49.2331H23.0485V35.2562C23.0219 32.5768 22.4494 30.5639 21.3309 29.2176C20.2125 27.8712 18.5083 27.198 16.2182 27.198C13.6218 27.198 11.5514 28.1645 10.007 30.0974V30.0974L9.82721 27.5979H4.3949V49.2331H10.1667Z" fill="#363B45"/>
</svg>
