<svg width="127" height="80" viewBox="0 0 127 80" fill="none" xmlns="http://www.w3.org/2000/svg">
<path d="M65.3434 75.2144L5.93146 40.6899C2.93552 38.931 2.93552 34.5756 5.93146 32.8167L62.4382 1.15662C64.602 -0.0997328 67.1818 -0.0997328 69.3455 1.15662L124.438 33.3193C127.433 35.0782 127.433 39.4335 124.438 41.1924L65.3434 75.2144Z" fill="#FAFAFA"/>
<path d="M124.469 41.8019L69.0147 73.4176C66.8498 74.6542 64.2686 74.6542 62.1037 73.4176L5.90007 41.4296C4.6511 40.6877 3.90172 39.5334 3.73519 38.2144C3.48539 39.9457 4.15151 45.3096 5.90007 46.2989C7.64863 47.2882 62.1037 78.2869 62.1037 78.2869C64.2686 79.5235 66.8498 79.5235 69.0147 78.2869L124.469 46.7936C126.218 45.8043 126.884 40.4403 126.634 38.709C126.467 39.9457 125.801 41.0599 124.469 41.8019Z" fill="#EBEBEB"/>
<path d="M1 20L96 73" stroke="#00ACED" stroke-width="2" stroke-linecap="round"/>
<path opacity="0.276925" fill-rule="evenodd" clip-rule="evenodd" d="M24 31.7962L61.0144 11L109 39.8315L72.4155 59L24 31.7962Z" fill="url(#paint0_linear)"/>
<defs>
<linearGradient id="paint0_linear" x1="52.7895" y1="23.0721" x2="47.8214" y2="50.8157" gradientUnits="userSpaceOnUse">
<stop stop-color="#FAFAFA"/>
<stop offset="1" stop-color="#4FC4F0"/>
</linearGradient>
</defs>
</svg>
